<?xml version="1.0" encoding="utf-8"?>
<!-- Generator: Adobe Illustrator 16.0.3, SVG Export Plug-In . SVG Version: 6.00 Build 0)  -->
<!DOCTYPE svg PUBLIC "-//W3C//DTD SVG 1.1//EN" "http://www.w3.org/Graphics/SVG/1.1/DTD/svg11.dtd">
<svg version="1.1" id="Layer_1" xmlns="http://www.w3.org/2000/svg" xmlns:xlink="http://www.w3.org/1999/xlink" x="0px" y="0px"
	 width="24px" height="24px" viewBox="0 0 24 24" enable-background="new 0 0 24 24" xml:space="preserve">
<path fill-rule="evenodd" clip-rule="evenodd" fill="#222222" d="M2.62,1.326C1.035,1.326,0,2.394,0,3.785
	c0,1.358,1.003,2.457,2.555,2.457c1.65,0,2.653-1.099,2.653-2.457C5.175,2.394,4.205,1.326,2.62,1.326z M0.129,24h4.917V8.183H0.129
	V24z M18.34,7.828c-2.653,0-4.237,1.52-4.885,2.555h-0.097l-0.017-2.2H8.979v15.812L13.908,24v-9.122
	c0-0.452,0.032-0.904,0.161-1.228c0.356-0.906,1.165-1.844,2.522-1.844c1.778,0,2.491,1.391,2.491,3.428V24H24v-9.347
	C24,9.995,21.574,7.828,18.34,7.828z"/>
</svg>
